<svg width="58" height="58" viewBox="0 0 58 58" fill="none" xmlns="http://www.w3.org/2000/svg">
<path opacity="0.4" d="M18.1833 20.1789C21.6354 20.0202 25.1409 19.9375 28.9974 19.9375C32.8539 19.9375 36.3595 20.0202 39.8115 20.1789C44.785 20.4075 48.8235 24.259 49.4799 29.1334C49.8378 31.7927 50.1432 34.5869 50.1432 37.4583C50.1432 40.3298 49.8378 43.124 49.4799 45.7833C48.8235 50.6577 44.785 54.5091 39.8115 54.7377C36.3595 54.8965 32.8539 54.9792 28.9974 54.9792C25.1409 54.9792 21.6354 54.8965 18.1833 54.7377C13.2097 54.5091 9.17128 50.6577 8.51499 45.7833C8.15693 43.124 7.85156 40.3298 7.85156 37.4583C7.85156 34.5869 8.15693 31.7927 8.51499 29.1334C9.17128 24.259 13.2097 20.4075 18.1833 20.1789Z" fill="#236936"/>
<path fill-rule="evenodd" clip-rule="evenodd" d="M24.5414 29.6055C23.0575 29.6055 21.6275 30.5141 21.1416 32.018L17.6117 42.944C17.304 43.8967 17.8267 44.9182 18.7792 45.2261C19.7317 45.5337 20.7534 45.011 21.0612 44.0586L21.8268 41.6888H27.2563L28.0219 44.0586C28.3298 45.011 29.3513 45.5337 30.304 45.2261C31.2564 44.9182 31.7791 43.8967 31.4715 42.944L27.9415 32.018C27.4557 30.5141 26.0255 29.6055 24.5414 29.6055ZM22.9987 38.0628L24.5424 33.2848L26.0859 38.0628H22.9987Z" fill="#236936"/>
<path d="M38.0625 31.418C38.0625 30.417 37.251 29.6055 36.25 29.6055C35.249 29.6055 34.4375 30.417 34.4375 31.418V43.5013C34.4375 44.5023 35.249 45.3138 36.25 45.3138C37.251 45.3138 38.0625 44.5023 38.0625 43.5013V31.418Z" fill="#236936"/>
<path d="M20.5443 16.3112C20.5443 11.6398 24.3312 7.85286 29.0026 7.85286C33.674 7.85286 37.4609 11.6398 37.4609 16.3112V20.0816C38.2512 20.1096 39.0354 20.1417 39.8167 20.1776C40.6746 20.217 41.5045 20.3642 42.2943 20.6059V16.3112C42.2943 8.9704 36.3435 3.01953 29.0026 3.01953C21.6618 3.01953 15.7109 8.9704 15.7109 16.3112V20.6059C16.5006 20.3642 17.3307 20.217 18.1886 20.1776C18.9699 20.1417 19.754 20.1096 20.5443 20.0816V16.3112Z" fill="#236936"/>
</svg>
