<svg width="112" height="112" viewBox="0 0 112 112" fill="none" xmlns="http://www.w3.org/2000/svg">
<path opacity="0.4" d="M62.4953 8.17604C65.1697 8.18701 66.5072 8.19247 66.9095 8.89074C67.3113 9.58897 66.5674 10.8819 65.0797 13.4678C63.0128 17.0602 61.8307 21.226 61.8307 25.668C61.8307 39.199 72.7997 50.168 86.3307 50.168C90.7725 50.168 94.9384 48.9859 98.5308 46.919C101.117 45.4313 102.41 44.6874 103.108 45.0894C103.806 45.4913 103.812 46.829 103.823 49.5034C103.831 51.484 103.831 53.5597 103.831 55.7344V56.2682C103.831 66.4915 103.831 74.5214 102.988 80.7906C102.124 87.2148 100.318 92.3122 96.3132 96.3171C92.3083 100.322 87.2109 102.128 80.7867 102.992C74.5175 103.835 66.4876 103.835 56.2643 103.835H55.7305C45.5074 103.835 37.4774 103.835 31.2082 102.992C24.7838 102.128 19.6866 100.322 15.6816 96.3171C11.6768 92.3122 9.87057 87.2148 9.00682 80.7906C8.16397 74.5214 8.16402 66.4915 8.16406 56.2682V55.7344C8.16402 45.5112 8.16397 37.4814 9.00682 31.2121C9.87057 24.7877 11.6768 19.6905 15.6816 15.6855C19.6866 11.6807 24.7838 9.87448 31.2082 9.01072C37.4774 8.16788 45.5073 8.16792 55.7305 8.16797H56.2643C58.439 8.16797 60.5147 8.16792 62.4953 8.17604Z" fill="#4380ED"/>
<path fill-rule="evenodd" clip-rule="evenodd" d="M55.9974 40.832C57.9303 40.832 59.4974 42.3991 59.4974 44.332V81.6654C59.4974 83.5983 57.9303 85.1654 55.9974 85.1654C54.0645 85.1654 52.4974 83.5983 52.4974 81.6654V44.332C52.4974 42.3991 54.0645 40.832 55.9974 40.832ZM79.3307 59.4987C81.2637 59.4987 82.8307 61.0658 82.8307 62.9987V81.6654C82.8307 83.5983 81.2637 85.1654 79.3307 85.1654C77.3978 85.1654 75.8307 83.5983 75.8307 81.6654V62.9987C75.8307 61.0658 77.3978 59.4987 79.3307 59.4987ZM32.6641 64.1654C34.597 64.1654 36.1641 65.7324 36.1641 67.6654V81.6654C36.1641 83.5983 34.597 85.1654 32.6641 85.1654C30.7311 85.1654 29.1641 83.5983 29.1641 81.6654V67.6654C29.1641 65.7324 30.7311 64.1654 32.6641 64.1654Z" fill="#4380ED"/>
<path d="M68.8359 25.668C68.8359 16.003 76.6708 8.16797 86.3359 8.16797C96.0011 8.16797 103.836 16.003 103.836 25.668C103.836 35.333 96.0011 43.168 86.3359 43.168C76.6708 43.168 68.8359 35.333 68.8359 25.668Z" fill="#4380ED"/>
</svg>
