<svg width="47" height="48" viewBox="0 0 47 48" fill="none" xmlns="http://www.w3.org/2000/svg">
<path opacity="0.4" d="M13.1661 9.70142C13.8359 9.83984 14.3692 10.2898 14.7006 10.8843L15.7562 12.7781C16.145 13.4756 16.4722 14.0626 16.6859 14.5729C16.9126 15.1142 17.0472 15.6479 16.9857 16.2381C16.9241 16.8282 16.6823 17.3228 16.3488 17.8056C16.0344 18.2609 15.5931 18.7677 15.0688 19.37L13.517 21.1524C13.239 21.4718 13.0999 21.6314 13.0872 21.831C13.0745 22.0307 13.1885 22.2012 13.4164 22.5421C15.3588 25.4484 17.9767 28.0671 20.8852 30.0112C21.2263 30.2392 21.3967 30.3531 21.5963 30.3404C21.7959 30.3277 21.9557 30.1886 22.275 29.9105L24.0576 28.3588C24.6598 27.8344 25.1667 27.3932 25.622 27.0788C26.1047 26.7453 26.5993 26.5034 27.1894 26.4419C27.7796 26.3803 28.3134 26.5149 28.8547 26.7416C29.3649 26.9553 29.9519 27.2825 30.6493 27.6712L32.5433 28.727C33.1377 29.0583 33.5878 29.5917 33.7262 30.2614C33.866 30.9381 33.6597 31.6183 33.204 32.1774C31.5508 34.2057 28.902 35.4974 26.1233 34.9368C24.4153 34.5922 22.73 34.0182 20.6918 32.8493C16.5963 30.5005 12.9243 26.8265 10.5783 22.7358C9.40934 20.6976 8.83531 19.0123 8.49077 17.3043C7.93023 14.5255 9.22176 11.8768 11.2502 10.2235C11.8092 9.76786 12.4894 9.56155 13.1661 9.70142Z" fill="#DC2CA1"/>
<g filter="url(#filter0_f_2073_60597)">
<circle cx="24" cy="24" r="6" fill="#E542CE"/>
</g>
<defs>
<filter id="filter0_f_2073_60597" x="0.4" y="0.4" width="47.2" height="47.2" filterUnits="userSpaceOnUse" color-interpolation-filters="sRGB">
<feFlood flood-opacity="0" result="BackgroundImageFix"/>
<feBlend mode="normal" in="SourceGraphic" in2="BackgroundImageFix" result="shape"/>
<feGaussianBlur stdDeviation="8.8" result="effect1_foregroundBlur_2073_60597"/>
</filter>
</defs>
</svg>
