<svg width="49" height="49" viewBox="0 0 49 49" fill="none" xmlns="http://www.w3.org/2000/svg">
<path d="M36.0003 25.0376C36.2183 25.6528 35.8961 26.3282 35.2809 26.5462C34.6502 26.7695 33.9216 27.2504 33.1498 27.9272C32.3902 28.5933 31.6515 29.3934 30.997 30.1779C30.3449 30.9597 29.7908 31.7086 29.3997 32.2629C29.2044 32.5394 29.0508 32.766 28.9468 32.9221L28.7929 33.1568C28.5645 33.5162 28.1603 33.7251 27.7349 33.7034C27.3096 33.6815 26.9288 33.4325 26.7383 33.0516C26.2175 32.01 25.7503 31.5953 25.5149 31.4382C25.4152 31.3718 25.3479 31.3452 25.3211 31.3361C24.7202 31.2803 24.25 30.7748 24.25 30.1595C24.25 29.5067 24.7791 28.9776 25.4318 28.9776C25.5292 28.9786 25.771 28.9963 25.9596 29.06C26.2052 29.1302 26.5017 29.2554 26.826 29.4715C27.1501 29.6877 27.4901 29.9863 27.8314 30.3951C28.2038 29.886 28.6629 29.2861 29.182 28.6637C29.8831 27.8232 30.7085 26.9243 31.5913 26.1501C32.462 25.3867 33.454 24.6856 34.4918 24.3181C35.107 24.1003 35.7824 24.4223 36.0003 25.0376Z" fill="#94E52F"/>
<path opacity="0.4" d="M21.235 33.4082C19.0616 33.4082 17.3548 33.4082 16.0092 33.2562C14.6357 33.101 13.5219 32.7776 12.5961 32.0464C12.319 31.8275 12.062 31.5857 11.8284 31.3237C11.0411 30.4407 10.6895 29.3703 10.522 28.0572C10.3594 26.7814 10.3594 25.167 10.3594 23.1296V23.005C10.3594 22.3245 10.3594 21.6912 10.3654 21.102C10.3688 20.7762 10.3704 20.6133 10.4741 20.5108C10.5777 20.4082 10.7418 20.4082 11.0701 20.4082H35.0577C35.386 20.4082 35.5502 20.4082 35.6538 20.5108C35.7573 20.6133 35.7591 20.7762 35.7624 21.102C35.7642 21.279 35.7655 21.4599 35.7664 21.6449C35.7683 22.0492 35.7693 22.2514 35.6682 22.3552C35.5672 22.4591 35.3164 22.4649 34.815 22.4764C34.5093 22.4834 34.1996 22.5383 33.8957 22.646C32.5528 23.1215 31.3632 23.9875 30.4184 24.8161C29.4431 25.6714 28.5527 26.6444 27.8166 27.527C27.7522 27.6041 27.72 27.6427 27.6891 27.6665C27.5982 27.7365 27.5016 27.7571 27.3901 27.7304C27.3521 27.7212 27.3018 27.6966 27.2012 27.6474C26.9503 27.5248 26.7075 27.4323 26.4774 27.3645C26.05 27.2284 25.6207 27.2054 25.4448 27.2038L25.4275 27.2037C23.7958 27.2037 22.473 28.5265 22.473 30.1582C22.473 31.4827 23.3435 32.6023 24.5444 32.9781L24.5498 32.9798C24.5901 32.9924 24.6136 32.9998 24.642 33.0332C24.7657 33.1786 24.6627 33.4082 24.4718 33.4082H21.235Z" fill="#94E52F"/>
<path d="M24.8914 12.7266C27.0648 12.7266 28.7717 12.7265 30.1173 12.8785C31.4908 13.0337 32.6045 13.3572 33.5303 14.0884C33.8075 14.3072 34.0644 14.549 34.2981 14.8111C35.0854 15.6941 35.4369 16.7645 35.6044 18.0777C35.6236 18.2288 35.6333 18.3043 35.6159 18.3707C35.5883 18.4767 35.5069 18.5692 35.4052 18.6101C35.3415 18.6357 35.2619 18.6357 35.1026 18.6357H11.0224C10.8631 18.6357 10.7835 18.6357 10.7198 18.6101C10.6181 18.5692 10.5367 18.4767 10.509 18.3707C10.4917 18.3043 10.5013 18.2288 10.5206 18.0777C10.6881 16.7645 11.0396 15.6941 11.8269 14.8111C12.0606 14.549 12.3176 14.3072 12.5947 14.0884C13.5205 13.3572 14.6343 13.0337 16.0077 12.8785C17.3534 12.7265 19.0602 12.7266 21.2336 12.7266H24.8914Z" fill="#94E52F"/>
<g filter="url(#filter0_f_2073_60605)">
<circle cx="24.5" cy="24.5" r="6.5" fill="#95E430"/>
</g>
<defs>
<filter id="filter0_f_2073_60605" x="0.4" y="0.4" width="48.2" height="48.2" filterUnits="userSpaceOnUse" color-interpolation-filters="sRGB">
<feFlood flood-opacity="0" result="BackgroundImageFix"/>
<feBlend mode="normal" in="SourceGraphic" in2="BackgroundImageFix" result="shape"/>
<feGaussianBlur stdDeviation="8.8" result="effect1_foregroundBlur_2073_60605"/>
</filter>
</defs>
</svg>
