<svg width="29" height="29" viewBox="0 0 29 29" fill="none" xmlns="http://www.w3.org/2000/svg">
<path opacity="0.4" d="M22.2913 9.79105C22.7609 9.75306 23.2364 9.85334 23.6488 10.0849C23.9453 10.2513 24.1667 10.4746 24.3267 10.6579C24.415 10.759 24.5345 10.9105 24.6213 11.0207C25.1602 11.6753 25.7112 12.3483 26.0347 12.8076C26.3688 13.2819 26.6218 13.7337 26.7617 14.2456C26.9681 15.0012 26.9681 15.7925 26.7617 16.548C26.569 17.2536 26.181 17.8608 25.7937 18.3676C25.5592 18.6744 25.275 19.0037 25.0247 19.2939C24.8877 19.4526 24.6926 19.6827 24.5897 19.8077C24.3047 20.1554 24.0235 20.4985 23.6488 20.7088C23.2364 20.9403 22.7609 21.0406 22.2913 21.0027C21.8685 20.9684 21.2886 20.7037 20.8596 20.5074C20.4388 20.3193 19.6451 19.9648 19.3429 19.07C19.2328 18.7446 19.2338 18.3968 19.2345 18.0731V12.7206C19.2338 12.3969 19.2328 12.049 19.3429 11.7236C19.6451 10.8289 20.4388 10.4743 20.8596 10.2863C21.2886 10.09 21.8685 9.82524 22.2913 9.79105Z" fill="#3ED8EC"/>
<path opacity="0.4" d="M6.133 9.79105C5.66339 9.75306 5.18795 9.85334 4.77543 10.0849C4.47893 10.2513 4.25758 10.4746 4.09764 10.6579C4.00932 10.759 3.88987 10.9105 3.80299 11.0207C3.26407 11.6753 2.71308 12.3483 2.38958 12.8076C2.05553 13.2819 1.80248 13.7337 1.66261 14.2456C1.45621 15.0012 1.45621 15.7925 1.66261 16.548C1.85535 17.2536 2.24338 17.8608 2.63061 18.3676C2.86502 18.6744 3.14928 19.0037 3.39968 19.2939C3.53664 19.4526 3.73165 19.6827 3.83467 19.8077C4.11955 20.1554 4.40081 20.4985 4.77543 20.7088C5.18795 20.9403 5.66339 21.0406 6.133 21.0027C6.55575 20.9684 7.13576 20.7037 7.56464 20.5074C7.98556 20.3193 8.77921 19.9648 9.08149 19.07C9.19143 18.7446 9.19056 18.3968 9.18977 18.0731V12.7206C9.19056 12.3969 9.19143 12.049 9.08149 11.7236C8.77921 10.8289 7.98556 10.4743 7.56464 10.2863C7.13575 10.09 6.55575 9.82524 6.133 9.79105Z" fill="#3ED8EC"/>
<path d="M21.3018 20.7068V21.0717C21.3018 22.2751 19.9742 23.6717 17.7564 23.6717H15.3928C14.74 23.6717 14.2109 24.2008 14.2109 24.8535C14.2109 25.5061 14.74 26.0353 15.3928 26.0353H17.7564C20.7602 26.0353 23.6655 24.0455 23.6655 21.0717V20.7012C23.6598 20.7044 23.6541 20.7077 23.6485 20.7109C23.2359 20.9424 22.7604 21.0427 22.2909 21.0047C22.0018 20.9813 21.6394 20.8502 21.3018 20.7068Z" fill="#3ED8EC"/>
<path d="M7.15543 10.1026C7.49396 7.23581 10.3704 4.76012 14.2129 4.76012C18.0555 4.76012 20.932 7.23593 21.2704 10.1028C21.6173 9.95399 21.9943 9.81484 22.2928 9.7907C22.7602 9.75289 23.2334 9.85204 23.6445 10.0813C23.2971 5.64583 19.0459 2.39648 14.2129 2.39648C9.37983 2.39648 5.12853 5.64599 4.78125 10.0816C5.19255 9.85214 5.66594 9.75288 6.13356 9.7907C6.43198 9.81483 6.80875 9.95385 7.15543 10.1026Z" fill="#3ED8EC"/>
</svg>
