<svg width="66" height="66" viewBox="0 0 66 66" fill="none" xmlns="http://www.w3.org/2000/svg">
<path opacity="0.4" fill-rule="evenodd" clip-rule="evenodd" d="M14.4375 19.9375C14.4375 16.8999 16.8999 14.4375 19.9375 14.4375C22.9751 14.4375 25.4375 16.8999 25.4375 19.9375C25.4375 22.9751 22.9751 25.4375 19.9375 25.4375C16.8999 25.4375 14.4375 22.9751 14.4375 19.9375Z" fill="#3569CF"/>
<path opacity="0.4" d="M60.6103 34.9318C55.2557 31.4786 50.1545 30.0318 45.2722 30.2356C40.4124 30.4385 36.0426 32.2656 32.1117 34.8938C25.461 39.3403 19.6114 46.4356 14.3739 52.7883C13.5449 53.794 12.7309 54.7813 11.9318 55.7363L9.625 57.7518L12.9882 60.0417C15.3647 61.0262 18.1443 61.4574 21.3386 61.6673C24.5205 61.8763 28.3531 61.8763 32.9106 61.8763H33.2065C39.1905 61.8763 43.9609 61.8765 47.7012 61.3736C51.5633 60.8544 54.7363 59.7541 57.2454 57.245C59.444 55.0464 60.5679 52.3489 61.1605 49.0981C61.7378 45.9315 61.8459 42.0262 61.8698 37.2569L61.8775 35.7491L60.6103 34.9318Z" fill="#3569CF"/>
<path fill-rule="evenodd" clip-rule="evenodd" d="M32.7951 4.125H33.2049C39.1886 4.12495 43.9593 4.12489 47.6996 4.62776C51.5617 5.14701 54.7346 6.24731 57.2437 8.75639C59.7528 11.2655 60.8531 14.4384 61.3723 18.3005C61.875 22.0408 61.875 26.8114 61.875 32.7954V33.2046C61.875 39.1886 61.875 43.959 61.3723 47.6996C60.8531 51.5617 59.7528 54.7346 57.2437 57.2437C54.7346 59.7528 51.5617 60.8531 47.6996 61.3723C43.959 61.875 39.1886 61.875 33.2046 61.875H32.7954C26.8114 61.875 22.0408 61.875 18.3005 61.3723C14.4384 60.8531 11.2655 59.7528 8.75639 57.2437C6.24731 54.7346 5.14701 51.5617 4.62776 47.6996C4.12489 43.9593 4.12495 39.1886 4.125 33.2049V32.7951C4.12495 26.8113 4.12489 22.0408 4.62776 18.3005C5.14701 14.4384 6.24731 11.2655 8.75639 8.75639C11.2655 6.24731 14.4384 5.14701 18.3005 4.62776C22.0408 4.12489 26.8113 4.12495 32.7951 4.125ZM19.0333 10.0787C15.7812 10.516 13.9623 11.3286 12.6455 12.6455C11.3286 13.9623 10.516 15.7812 10.0787 19.0333C9.63083 22.3646 9.625 26.7645 9.625 33C9.625 39.2354 9.63083 43.6353 10.0787 46.9667C10.516 50.2188 11.3286 52.0377 12.6455 53.3547C13.9623 54.6714 15.7812 55.484 19.0333 55.9212C22.3646 56.3692 26.7645 56.375 33 56.375C39.2354 56.375 43.6353 56.3692 46.9667 55.9212C50.2188 55.484 52.0377 54.6714 53.3547 53.3547C54.6714 52.0377 55.484 50.2188 55.9212 46.9667C56.3692 43.6353 56.375 39.2354 56.375 33C56.375 26.7645 56.3692 22.3646 55.9212 19.0333C55.484 15.7812 54.6714 13.9623 53.3547 12.6455C52.0377 11.3286 50.2188 10.516 46.9667 10.0787C43.6353 9.63083 39.2354 9.625 33 9.625C26.7645 9.625 22.3646 9.63083 19.0333 10.0787Z" fill="#3569CF"/>
</svg>
