<svg width="51" height="51" viewBox="0 0 51 51" fill="none" xmlns="http://www.w3.org/2000/svg">
<path opacity="0.4" d="M25.6216 3.71875C30.2768 3.71873 33.9333 3.71871 36.788 4.1025C39.7133 4.49582 42.0344 5.31826 43.8581 7.14193C45.6818 8.96561 46.5041 11.2867 46.8975 14.212C47.2812 17.0668 47.2812 20.7232 47.2812 25.3784V25.6216C47.2812 30.2768 47.2812 33.9333 46.8975 36.788C46.5041 39.7133 45.6818 42.0344 43.8581 43.8581C42.0344 45.6818 39.7133 46.5041 36.788 46.8975C33.9333 47.2812 30.2768 47.2812 25.6216 47.2812H25.3784C20.7232 47.2812 17.0668 47.2812 14.212 46.8975C11.2867 46.5041 8.96561 45.6818 7.14193 43.8581C5.31826 42.0344 4.49582 39.7133 4.1025 36.788C3.71871 33.9333 3.71873 30.2768 3.71875 25.6216V25.3784C3.71873 20.7233 3.71871 17.0668 4.1025 14.212C4.49582 11.2867 5.31828 8.96561 7.14193 7.14193C8.96561 5.31828 11.2867 4.49582 14.212 4.1025C17.0668 3.71871 20.7233 3.71873 25.3784 3.71875H25.6216Z" fill="#B98123"/>
<path fill-rule="evenodd" clip-rule="evenodd" d="M24.824 22.3705C25.3489 22.4411 26.0752 22.63 26.6915 23.2463C27.3077 23.8625 27.4967 24.5886 27.5672 25.1137C27.6256 25.5485 27.6252 26.0542 27.625 26.4788C27.625 26.5073 27.625 26.5351 27.625 26.5625V35.0625C27.625 36.2362 26.6736 37.1875 25.5 37.1875C24.3264 37.1875 23.375 36.2362 23.375 35.0625V26.5625C22.2014 26.5625 21.25 25.6112 21.25 24.4375C21.25 23.2639 22.2014 22.3125 23.375 22.3125C23.4024 22.3125 23.4305 22.3125 23.4587 22.3125C23.8835 22.3123 24.3891 22.3119 24.824 22.3705Z" fill="#B98123"/>
<path fill-rule="evenodd" clip-rule="evenodd" d="M23.375 15.9375C23.375 14.7639 24.3221 13.8125 25.4904 13.8125H25.5096C26.6779 13.8125 27.625 14.7639 27.625 15.9375C27.625 17.1111 26.6779 18.0625 25.5096 18.0625H25.4904C24.3221 18.0625 23.375 17.1111 23.375 15.9375Z" fill="#B98123"/>
</svg>
