<svg width="49" height="48" viewBox="0 0 49 48" fill="none" xmlns="http://www.w3.org/2000/svg">
<path d="M12.4973 20.6C12.5343 18.868 12.5648 17.437 12.7664 16.2773L15.4239 17.6449C15.3049 17.6028 15.2135 17.5994 15.131 17.6449C14.9575 17.7405 14.9461 17.9802 14.9232 18.4594C14.8924 19.1053 14.8757 19.8541 14.8568 20.7394C14.8323 21.8852 14.8323 22.4779 14.8568 23.6238C14.8962 25.4674 14.926 26.7189 15.0935 27.6821C15.2512 28.589 15.5143 29.128 15.9644 29.5792C16.4098 30.0257 16.956 30.2933 17.8935 30.4564C18.8841 30.6287 20.1761 30.6641 22.0705 30.7117C24.3423 30.7687 26.02 30.7687 28.2918 30.7116C30.1861 30.6641 31.4782 30.6287 32.4688 30.4564C33.4062 30.2933 33.9524 30.0257 34.3979 29.5792C34.8479 29.128 35.1111 28.589 35.2688 27.6821C35.4362 26.7189 35.4661 25.4673 35.5055 23.6236C35.5299 22.4779 35.5299 21.8852 35.5055 20.7394C35.4866 19.854 35.4698 19.1051 35.4391 18.4591C35.4161 17.9799 35.4047 17.7403 35.2312 17.6446C35.1486 17.5991 35.057 17.6026 34.9376 17.6449L37.5958 16.2773C37.7974 17.437 37.828 18.868 37.8649 20.6L37.8667 20.6891C37.8919 21.8684 37.8919 22.4946 37.8667 23.674L37.8649 23.7631C37.828 25.495 37.7975 26.9261 37.5958 28.0857C37.381 29.3213 36.9569 30.356 36.0711 31.244C35.1807 32.1366 34.1295 32.562 32.874 32.7804C31.691 32.9861 30.2233 33.0229 28.4395 33.0677L28.3511 33.0698C26.0397 33.1278 24.3225 33.1278 22.0111 33.0699L21.9227 33.0677C20.1389 33.0229 18.6712 32.9861 17.4883 32.7804C16.2327 32.562 15.1815 32.1366 14.2911 31.244C13.4054 30.356 12.9813 29.3214 12.7664 28.0857C12.5648 26.9261 12.5343 25.495 12.4974 23.7631L12.4955 23.674C12.4703 22.4946 12.4703 21.8684 12.4954 20.6891L12.4973 20.6Z" fill="#F9A876"/>
<path opacity="0.4" d="M22.0103 11.2935C24.3217 11.2355 26.039 11.2355 28.3503 11.2935L28.4388 11.2957C30.2225 11.3404 31.6902 11.3772 32.8732 11.583C33.3108 11.6591 33.7235 11.7604 34.1134 11.8978C34.2169 11.9221 34.3164 11.9603 34.4091 12.011C35.0188 12.2636 35.57 12.6177 36.0704 13.1193C36.956 14.0073 37.3802 15.042 37.595 16.2776L34.9368 17.6452C34.8055 17.6917 34.6405 17.7852 34.4169 17.9119L29.411 20.7483C27.8751 21.6186 26.576 22.1818 25.18 22.1818C23.7841 22.1818 22.4851 21.6186 20.9492 20.7483L15.9438 17.9121C15.7198 17.7852 15.5546 17.6916 15.4231 17.6452L12.7656 16.2776C12.9805 15.042 13.4046 14.0073 14.2903 13.1193C15.1807 12.2267 16.2319 11.8014 17.4874 11.583C18.6704 11.3772 20.1381 11.3404 21.9219 11.2957L22.0103 11.2935Z" fill="#F9A876"/>
<g filter="url(#filter0_f_2073_60646)">
<circle cx="24.4688" cy="24.4668" r="6.5" fill="#F9A876"/>
</g>
<defs>
<filter id="filter0_f_2073_60646" x="0.36875" y="0.366796" width="48.2" height="48.2" filterUnits="userSpaceOnUse" color-interpolation-filters="sRGB">
<feFlood flood-opacity="0" result="BackgroundImageFix"/>
<feBlend mode="normal" in="SourceGraphic" in2="BackgroundImageFix" result="shape"/>
<feGaussianBlur stdDeviation="8.8" result="effect1_foregroundBlur_2073_60646"/>
</filter>
</defs>
</svg>
