<svg width="21" height="20" viewBox="0 0 21 20" fill="none" xmlns="http://www.w3.org/2000/svg">
<path d="M10.4974 18.3346C15.0998 18.3346 18.8307 14.6037 18.8307 10.0013C18.8307 5.39893 15.0998 1.66797 10.4974 1.66797C5.89502 1.66797 2.16406 5.39893 2.16406 10.0013C2.16406 14.6037 5.89502 18.3346 10.4974 18.3346Z" stroke="#CAD1E9" stroke-width="1.5"/>
<path d="M13.375 10.3277C13.2487 10.8499 12.6521 11.219 11.459 11.9572C10.3055 12.6707 9.72881 13.0275 9.26398 12.8841C9.07181 12.8248 8.89681 12.7122 8.75558 12.557C8.41406 12.1819 8.41406 11.4541 8.41406 9.9987C8.41406 8.54328 8.41406 7.81551 8.75558 7.44032C8.89681 7.2852 9.07181 7.1726 9.26398 7.1133C9.72881 6.9699 10.3055 7.32667 11.459 8.04022C12.6521 8.77836 13.2487 9.14745 13.375 9.6697C13.4271 9.88528 13.4271 10.1121 13.375 10.3277Z" stroke="#CAD1E9" stroke-width="1.5" stroke-linejoin="round"/>
</svg>
