<svg width="305" height="321" viewBox="0 0 305 321" fill="none" xmlns="http://www.w3.org/2000/svg">
<path fill-rule="evenodd" clip-rule="evenodd" d="M152.487 0.59375C127.479 0.59375 107.147 9.04186 89.4145 18.2288C84.0559 21.0048 79.078 23.7509 74.3213 26.375C62.6823 32.7956 52.3659 38.4863 41.0376 42.1008C34.3841 44.2236 28.4903 46.104 24.3115 47.7416C20.3783 49.2827 15.7039 51.3949 12.3873 55.0807C9.4081 58.3918 7.87761 62.1089 6.86284 65.6644C5.94163 68.892 5.15414 73.2615 4.39879 77.4536C-14.0156 179.58 26.2509 276.332 124.582 313.979C134.246 317.68 141.365 320.406 152.536 320.406C163.709 320.406 170.827 317.68 180.491 313.979C278.819 276.33 319.046 179.576 300.626 77.4529C299.87 73.2604 299.082 68.8898 298.161 65.6621C297.145 62.1062 295.615 58.3886 292.635 55.0776C289.318 51.3917 284.644 49.2802 280.71 47.7395C276.531 46.1025 270.638 44.2232 263.984 42.1015C252.651 38.4869 242.326 32.795 230.678 26.3735C225.919 23.75 220.938 21.0037 215.58 18.2287C197.837 9.04201 177.497 0.59375 152.487 0.59375ZM115.315 111.227V127.019C114.197 127.358 113.087 127.764 111.984 128.254C102.759 132.348 95.6636 140.087 92.0155 149.522C90.4403 153.598 89.8347 157.782 89.5537 162.194C89.2833 166.441 89.2833 171.613 89.2834 177.813V178.515C89.2833 184.714 89.2833 189.887 89.5537 194.134C89.8347 198.546 90.4403 202.732 92.0155 206.806C95.6636 216.243 102.759 223.981 111.984 228.074C116.035 229.873 120.182 230.551 124.43 230.862C128.47 231.156 133.365 231.156 139.098 231.156H165.906C171.64 231.156 176.534 231.156 180.574 230.862C184.823 230.551 188.97 229.873 193.02 228.074C202.246 223.981 209.341 216.243 212.988 206.806C214.564 202.732 215.169 198.546 215.45 194.134C215.721 189.887 215.721 184.714 215.721 178.515V177.813C215.721 171.613 215.721 166.441 215.45 162.194C215.169 157.782 214.564 153.598 212.988 149.522C209.341 140.087 202.246 132.348 193.02 128.254C191.918 127.764 190.807 127.358 189.69 127.019V111.227C189.69 90.823 172.655 74.9688 152.502 74.9688C132.35 74.9688 115.315 90.823 115.315 111.227ZM152.502 97.2812C143.901 97.2812 137.627 103.904 137.627 111.227V125.172L139.098 125.172H165.906L167.377 125.172V111.227C167.377 103.904 161.103 97.2812 152.502 97.2812Z" fill="#0084FF"/>
</svg>
