<svg width="49" height="49" viewBox="0 0 49 49" fill="none" xmlns="http://www.w3.org/2000/svg">
<path fill-rule="evenodd" clip-rule="evenodd" d="M18.4549 22.5877C18.8011 22.2416 19.3623 22.2416 19.7084 22.5877L20.2635 23.1427L20.8186 22.5877C21.1647 22.2416 21.7259 22.2416 22.0721 22.5877C22.4182 22.9339 22.4182 23.495 22.0721 23.8412L21.517 24.3963L22.0721 24.9514C22.4182 25.2975 22.4182 25.8587 22.0721 26.2048C21.7259 26.551 21.1647 26.551 20.8186 26.2048L20.2635 25.6498L19.7084 26.2048C19.3623 26.551 18.8011 26.551 18.4549 26.2048C18.1088 25.8587 18.1088 25.2975 18.4549 24.9514L19.01 24.3963L18.4549 23.8412C18.1088 23.495 18.1088 22.9339 18.4549 22.5877Z" fill="#78B8FA"/>
<path fill-rule="evenodd" clip-rule="evenodd" d="M12.5409 22.5877C12.887 22.2416 13.4482 22.2416 13.7944 22.5877L14.3494 23.1427L14.9045 22.5877C15.2506 22.2416 15.8119 22.2416 16.158 22.5877C16.5042 22.9339 16.5042 23.495 16.158 23.8412L15.6029 24.3963L16.158 24.9514C16.5042 25.2975 16.5042 25.8587 16.158 26.2048C15.8119 26.551 15.2506 26.551 14.9045 26.2048L14.3494 25.6498L13.7944 26.2048C13.4482 26.551 12.887 26.551 12.5409 26.2048C12.1947 25.8587 12.1947 25.2975 12.5409 24.9514L13.0959 24.3963L12.5409 23.8412C12.1947 23.495 12.1947 22.9339 12.5409 22.5877Z" fill="#78B8FA"/>
<path fill-rule="evenodd" clip-rule="evenodd" d="M24.3612 22.5877C24.7073 22.2416 25.2686 22.2416 25.6147 22.5877L26.1698 23.1427L26.7248 22.5877C27.071 22.2416 27.6322 22.2416 27.9784 22.5877C28.3245 22.9339 28.3245 23.495 27.9784 23.8412L27.4233 24.3963L27.9784 24.9514C28.3245 25.2975 28.3245 25.8587 27.9784 26.2048C27.6322 26.551 27.071 26.551 26.7248 26.2048L26.1698 25.6498L25.6147 26.2048C25.2686 26.551 24.7073 26.551 24.3612 26.2048C24.015 25.8587 24.015 25.2975 24.3612 24.9514L24.9163 24.3963L24.3612 23.8412C24.015 23.495 24.015 22.9339 24.3612 22.5877Z" fill="#78B8FA"/>
<path fill-rule="evenodd" clip-rule="evenodd" d="M30.2674 22.5877C30.6136 22.2416 31.1748 22.2416 31.521 22.5877L32.0761 23.1427L32.6311 22.5877C32.9772 22.2416 33.5385 22.2416 33.8846 22.5877C34.2308 22.9339 34.2308 23.495 33.8846 23.8412L33.3295 24.3963L33.8846 24.9514C34.2308 25.2975 34.2308 25.8587 33.8846 26.2048C33.5385 26.551 32.9772 26.551 32.6311 26.2048L32.0761 25.6498L31.521 26.2048C31.1748 26.551 30.6136 26.551 30.2674 26.2048C29.9213 25.8587 29.9213 25.2975 30.2674 24.9514L30.8225 24.3963L30.2674 23.8412C29.9213 23.495 29.9213 22.9339 30.2674 22.5877Z" fill="#78B8FA"/>
<g filter="url(#filter0_f_2073_60582)">
<circle cx="24.5" cy="24.5" r="6.5" fill="#78B9F9"/>
</g>
<g opacity="0.4">
<path d="M18.2005 11.9128C19.6093 11.1829 21.2247 10.5117 23.2117 10.5117C25.1986 10.5117 26.8147 11.1829 28.2242 11.9128C28.65 12.1333 29.0457 12.3514 29.4239 12.5599C30.3492 13.0701 31.1695 13.5223 32.0701 13.8095C32.5987 13.9781 33.0668 14.1274 33.3989 14.2574C33.7114 14.3799 34.0827 14.5476 34.3463 14.8405C34.5831 15.1035 34.7047 15.3989 34.7853 15.6814C34.8586 15.9378 34.9211 16.2851 34.9811 16.6182C35.1966 17.8125 35.3111 18.9976 35.3247 20.1598C35.3285 20.4813 35.3304 20.642 35.2263 20.7473C35.1221 20.8526 34.9574 20.8526 34.6279 20.8526H11.7996C11.4701 20.8526 11.3054 20.8526 11.2013 20.7473C11.0972 20.642 11.0991 20.4813 11.1028 20.1599C11.1163 18.9977 11.2306 17.8126 11.446 16.6182C11.506 16.2852 11.5685 15.938 11.6417 15.6816C11.7224 15.3991 11.8439 15.1038 12.0806 14.8407C12.3442 14.5479 12.7155 14.3801 13.028 14.2576C13.36 14.1275 13.8283 13.9781 14.3569 13.8095C15.2569 13.5223 16.0765 13.0702 17.0012 12.5601C17.3792 12.3516 17.7747 12.1334 18.2005 11.9128Z" fill="#78B8FA"/>
<path d="M25.437 35.41C24.6691 35.704 24.1037 35.9206 23.216 35.9206C22.3284 35.9206 21.7629 35.704 20.9949 35.41C17.4929 34.0692 14.9178 31.7847 13.2742 28.9413C13.0263 28.5124 12.9024 28.298 13.0047 28.1208C13.1071 27.9434 13.3632 27.9434 13.8755 27.9434H32.5547C33.0669 27.9434 33.3229 27.9434 33.4253 28.1206C33.5276 28.298 33.4038 28.5124 33.1561 28.9412C31.5132 31.7846 28.9389 34.0691 25.437 35.41Z" fill="#78B8FA"/>
</g>
<defs>
<filter id="filter0_f_2073_60582" x="0.4" y="0.4" width="48.2" height="48.2" filterUnits="userSpaceOnUse" color-interpolation-filters="sRGB">
<feFlood flood-opacity="0" result="BackgroundImageFix"/>
<feBlend mode="normal" in="SourceGraphic" in2="BackgroundImageFix" result="shape"/>
<feGaussianBlur stdDeviation="8.8" result="effect1_foregroundBlur_2073_60582"/>
</filter>
</defs>
</svg>
