<svg width="49" height="47" viewBox="0 0 49 47" fill="none" xmlns="http://www.w3.org/2000/svg">
<path opacity="0.4" d="M17.9275 16.9012C19.6157 16.8236 21.33 16.7832 23.2159 16.7832C25.1019 16.7832 26.8162 16.8236 28.5043 16.9013C30.9365 17.0131 32.9114 18.8965 33.2324 21.2803C33.4074 22.5807 33.5568 23.9471 33.5568 25.3514C33.5568 26.7556 33.4074 28.122 33.2324 29.4225C32.9114 31.8062 30.9365 33.6897 28.5043 33.8015C26.8162 33.8792 25.1019 33.9196 23.2159 33.9196C21.33 33.9196 19.6157 33.8792 17.9275 33.8015C15.4953 33.6897 13.5204 31.8062 13.1994 29.4225C13.0243 28.122 12.875 26.7556 12.875 25.3514C12.875 23.9471 13.0243 22.5807 13.1994 21.2803C13.5204 18.8965 15.4953 17.0131 17.9275 16.9012Z" fill="#65F78D"/>
<path fill-rule="evenodd" clip-rule="evenodd" d="M19.0781 25.3517C19.0781 24.699 19.6072 24.1699 20.2599 24.1699H20.2705C20.9233 24.1699 21.4524 24.699 21.4524 25.3517C21.4524 26.0045 20.9233 26.5336 20.2705 26.5336H20.2599C19.6072 26.5336 19.0781 26.0045 19.0781 25.3517ZM24.9766 25.3517C24.9766 24.699 25.5057 24.1699 26.1584 24.1699H26.169C26.8218 24.1699 27.3509 24.699 27.3509 25.3517C27.3509 26.0045 26.8218 26.5336 26.169 26.5336H26.1584C25.5057 26.5336 24.9766 26.0045 24.9766 25.3517Z" fill="#65F78D"/>
<path d="M19.0746 15.0117C19.0746 12.7273 20.9265 10.8754 23.2109 10.8754C25.4954 10.8754 27.3473 12.7273 27.3473 15.0117V16.8555C27.7338 16.8693 28.1173 16.8849 28.4993 16.9025C28.9189 16.9218 29.3247 16.9938 29.7109 17.112V15.0117C29.7109 11.4219 26.8008 8.51172 23.2109 8.51172C19.6211 8.51172 16.7109 11.4219 16.7109 15.0117V17.112C17.0971 16.9938 17.503 16.9218 17.9226 16.9025C18.3047 16.8849 18.6881 16.8693 19.0746 16.8555V15.0117Z" fill="#65F78D"/>
<g filter="url(#filter0_f_2073_60615)">
<circle cx="24.5" cy="24.5" r="6.5" fill="#95E430"/>
</g>
<defs>
<filter id="filter0_f_2073_60615" x="0.4" y="0.4" width="48.2" height="48.2" filterUnits="userSpaceOnUse" color-interpolation-filters="sRGB">
<feFlood flood-opacity="0" result="BackgroundImageFix"/>
<feBlend mode="normal" in="SourceGraphic" in2="BackgroundImageFix" result="shape"/>
<feGaussianBlur stdDeviation="8.8" result="effect1_foregroundBlur_2073_60615"/>
</filter>
</defs>
</svg>
