<svg width="49" height="47" viewBox="0 0 49 47" fill="none" xmlns="http://www.w3.org/2000/svg">
<path d="M31.041 24.536C31.1784 24.6177 31.3482 24.7136 31.5405 24.8221C32.3829 25.2973 33.6563 26.0157 34.5287 26.8696C35.0743 27.4036 35.5927 28.1074 35.6869 28.9697C35.7871 29.8865 35.3872 30.747 34.5846 31.5115C33.2003 32.8304 31.5389 33.8875 29.39 33.8875H18.9684C16.8195 33.8875 15.1581 32.8304 13.7737 31.5115C12.9712 30.747 12.5712 29.8865 12.6714 28.9697C12.7656 28.1074 13.2841 27.4036 13.8297 26.8696C14.702 26.0157 15.9755 25.2973 16.8179 24.8221C17.0101 24.7137 17.1799 24.6177 17.3174 24.536C21.5176 22.0349 26.8408 22.0349 31.041 24.536Z" fill="#4770FF"/>
<path opacity="0.4" d="M17.9766 14.6811C17.9766 11.2544 20.7544 8.47656 24.1811 8.47656C27.6078 8.47656 30.3857 11.2544 30.3857 14.6811C30.3857 18.1078 27.6078 20.8857 24.1811 20.8857C20.7544 20.8857 17.9766 18.1078 17.9766 14.6811Z" fill="#4770FF"/>
<g filter="url(#filter0_f_2073_60637)">
<circle cx="24.4688" cy="24.4668" r="6.5" fill="#4871FE"/>
</g>
<defs>
<filter id="filter0_f_2073_60637" x="0.36875" y="0.366796" width="48.2" height="48.2" filterUnits="userSpaceOnUse" color-interpolation-filters="sRGB">
<feFlood flood-opacity="0" result="BackgroundImageFix"/>
<feBlend mode="normal" in="SourceGraphic" in2="BackgroundImageFix" result="shape"/>
<feGaussianBlur stdDeviation="8.8" result="effect1_foregroundBlur_2073_60637"/>
</filter>
</defs>
</svg>
